<?xml version="1.0" standalone="no"?>
<!DOCTYPE svg PUBLIC "-//W3C//DTD SVG 20010904//EN"
 "http://www.w3.org/TR/2001/REC-SVG-20010904/DTD/svg10.dtd">
<svg version="1.0" xmlns="http://www.w3.org/2000/svg"
 width="8000.000000pt" height="2048.000000pt" viewBox="0 0 8000 2048"
 preserveAspectRatio="xMidYMid meet">
<metadata>
Created by potrace 1.16, written by Peter Selinger 2001-2019
</metadata>
<g transform="translate(0.000000,2048.000000) scale(0.100000,-0.100000)"
fill="#0066CC" stroke="none">
<path d="M10005 19941 c-106 -28 -343 -111 -990 -349 -165 -60 -372 -136 -460
-167 -88 -31 -200 -71 -250 -90 -112 -42 -347 -127 -570 -207 -93 -33 -228
-82 -300 -108 -71 -26 -238 -86 -370 -134 -132 -48 -256 -93 -275 -101 -33
-12 -124 -45 -445 -160 -71 -25 -202 -73 -290 -105 -88 -33 -209 -77 -270 -98
-150 -53 -566 -204 -695 -252 -58 -21 -168 -61 -245 -89 -77 -27 -221 -79
-320 -116 -99 -36 -360 -131 -580 -210 -220 -79 -436 -158 -480 -175 -44 -17
-105 -39 -135 -50 -121 -41 -228 -79 -280 -100 -30 -11 -80 -29 -110 -39 -30
-11 -131 -47 -225 -81 -93 -34 -255 -93 -360 -130 -104 -38 -260 -94 -345
-125 -262 -95 -408 -180 -525 -306 -59 -64 -141 -181 -167 -239 -47 -102 -68
-165 -92 -265 -22 -99 -38 -191 -91 -560 -44 -302 -79 -624 -100 -920 -8 -115
-17 -228 -20 -250 -18 -157 -27 -1139 -12 -1460 30 -648 106 -1313 217 -1905
68 -356 137 -678 199 -920 101 -393 270 -944 396 -1285 20 -55 43 -118 50
-140 62 -185 292 -735 454 -1085 84 -181 314 -632 391 -765 13 -22 35 -62 50
-90 15 -27 55 -99 89 -160 35 -60 77 -135 94 -165 59 -105 372 -600 478 -755
92 -134 199 -285 273 -385 39 -52 78 -104 86 -116 84 -125 583 -744 691 -859
26 -27 59 -66 75 -85 15 -19 55 -64 88 -100 34 -36 113 -121 176 -189 263
-284 735 -741 990 -961 35 -30 71 -62 79 -70 9 -9 54 -47 101 -85 47 -39 94
-78 105 -87 226 -187 426 -343 745 -580 402 -298 1025 -693 1525 -966 155 -84
523 -271 628 -318 45 -21 119 -54 165 -76 46 -21 142 -63 215 -94 73 -31 146
-62 162 -70 122 -55 687 -254 724 -254 9 0 82 23 162 51 79 28 162 57 184 64
63 20 357 136 505 199 352 150 880 412 1187 590 68 39 140 80 162 92 21 11 97
56 167 99 538 326 952 612 1494 1030 587 453 1320 1150 1870 1779 128 148 304
358 439 526 50 63 97 122 104 130 7 8 30 40 52 70 22 30 47 63 55 72 17 19
169 227 265 363 75 106 275 404 330 490 21 33 55 85 75 115 55 82 251 401 263
430 6 14 21 39 33 55 11 17 40 66 64 110 23 44 59 109 78 145 19 36 42 79 52
95 54 93 308 594 380 750 18 39 52 111 75 160 24 50 60 130 80 179 20 49 41
96 45 105 61 115 314 797 435 1171 117 362 139 435 175 570 12 47 28 105 36
130 25 86 105 416 135 560 17 80 39 186 50 235 67 315 126 658 173 1010 29
208 61 495 71 620 3 44 10 132 15 195 31 383 34 1454 5 1815 -3 33 -10 132
-15 220 -18 281 -79 815 -139 1215 -5 36 -17 115 -26 175 -41 277 -123 461
-285 637 -120 132 -266 222 -482 297 -62 22 -162 58 -223 80 -60 22 -144 52
-185 66 -41 15 -133 49 -205 75 -71 27 -224 83 -340 124 -207 74 -343 123
-680 246 -93 34 -269 98 -390 141 -121 44 -236 86 -255 94 -19 8 -154 57 -300
109 -146 52 -353 127 -460 166 -107 40 -287 105 -400 145 -113 40 -257 91
-320 115 -63 23 -151 54 -195 69 -44 16 -147 53 -230 84 -82 31 -382 140 -665
243 -283 102 -551 200 -595 216 -94 34 -225 81 -275 98 -19 7 -114 41 -210 75
-96 35 -232 84 -302 109 -70 25 -144 52 -165 60 -21 9 -128 47 -238 87 -344
122 -954 343 -1035 374 -344 130 -408 147 -595 152 -129 3 -149 1 -250 -26z
m380 -1187 c90 -20 125 -32 455 -154 151 -56 320 -117 375 -136 102 -36 270
-98 570 -209 199 -75 600 -220 759 -275 61 -22 161 -57 221 -80 215 -80 667
-245 1030 -375 371 -133 653 -236 780 -284 61 -22 193 -70 295 -107 102 -36
248 -88 325 -116 77 -27 185 -67 240 -87 55 -21 210 -78 345 -126 135 -48 268
-96 295 -106 227 -85 557 -205 775 -282 69 -25 193 -70 275 -100 83 -31 265
-97 405 -147 139 -50 272 -102 295 -115 86 -51 162 -144 196 -242 35 -104 101
-499 148 -893 20 -167 40 -418 51 -635 6 -121 15 -283 21 -360 8 -130 5 -835
-4 -880 -3 -11 -8 -85 -11 -165 -8 -163 -31 -465 -46 -585 -5 -44 -14 -125
-20 -180 -43 -401 -158 -1039 -266 -1485 -154 -632 -455 -1530 -666 -1990 -16
-36 -45 -101 -63 -145 -78 -187 -337 -717 -435 -890 -13 -22 -34 -62 -47 -88
-22 -42 -65 -118 -243 -422 -25 -44 -66 -111 -90 -150 -24 -38 -61 -99 -83
-135 -22 -36 -56 -90 -77 -120 -230 -346 -297 -442 -392 -567 -27 -34 -48 -67
-48 -72 0 -5 -3 -11 -7 -13 -9 -3 -24 -23 -153 -193 -136 -180 -182 -238 -214
-276 -34 -40 -46 -54 -96 -119 -35 -45 -57 -71 -180 -210 -461 -523 -868 -926
-1335 -1325 -82 -70 -161 -137 -175 -149 -47 -40 -365 -291 -413 -326 -27 -19
-84 -62 -127 -95 -148 -112 -598 -422 -772 -531 -21 -13 -55 -35 -75 -47 -21
-13 -63 -40 -93 -59 -30 -19 -100 -61 -155 -93 -55 -32 -122 -72 -150 -88 -98
-59 -403 -222 -581 -311 -341 -172 -617 -295 -954 -427 -21 -8 -51 1 -175 49
-684 268 -1432 665 -2120 1125 -301 202 -652 459 -930 682 -88 70 -412 341
-425 355 -3 3 -21 18 -40 34 -47 38 -234 210 -350 322 -52 51 -112 107 -134
126 -70 61 -469 481 -621 654 -169 193 -159 181 -281 329 -167 204 -220 270
-284 354 -91 118 -101 131 -236 318 -192 267 -218 304 -229 322 -14 23 -180
275 -227 346 l-40 60 20 55 c11 30 46 116 77 190 31 74 76 187 101 250 25 63
49 124 54 135 5 11 18 43 30 70 12 28 55 131 95 230 115 283 235 577 250 610
8 17 42 98 75 180 116 284 229 560 270 660 23 55 97 237 164 405 68 168 133
325 144 350 11 25 43 101 71 170 27 69 79 197 115 285 36 88 66 165 66 172 0
6 24 21 53 32 28 11 137 56 241 99 l189 80 16 -21 c18 -25 18 -24 104 -183 62
-116 144 -266 222 -409 21 -38 56 -104 77 -145 22 -41 70 -131 108 -200 38
-69 79 -146 91 -172 13 -27 26 -48 30 -48 4 0 10 12 13 27 4 14 22 65 40 112
19 47 53 138 75 201 23 63 51 135 63 160 11 25 35 86 53 137 19 50 70 183 114
295 151 383 228 583 261 678 18 52 40 101 48 107 9 7 63 31 121 54 58 22 120
46 136 53 78 34 222 92 655 267 455 183 453 182 467 209 7 14 31 70 54 125 22
55 49 119 60 142 10 24 19 45 19 48 0 3 18 44 39 92 21 49 62 142 91 208 102
234 118 271 160 365 24 52 60 136 80 185 21 50 86 200 145 335 137 313 159
370 141 370 -12 0 -47 -13 -141 -55 -16 -7 -84 -34 -150 -60 -66 -26 -165 -65
-220 -87 -280 -113 -324 -131 -370 -148 -27 -10 -93 -36 -145 -58 -52 -22
-201 -82 -330 -135 -224 -91 -395 -160 -525 -214 -33 -14 -94 -38 -135 -53
-41 -16 -142 -56 -225 -90 -404 -166 -591 -242 -604 -243 -7 -1 -17 5 -22 13
-4 8 -52 96 -105 195 -54 99 -115 209 -135 245 -21 36 -72 133 -114 215 -43
83 -95 181 -117 218 -22 38 -37 71 -34 74 3 3 65 29 138 58 73 29 286 114 473
190 187 76 372 150 410 166 39 15 138 55 220 89 83 33 166 67 185 74 19 8 132
53 250 101 118 48 280 113 360 145 80 32 226 91 325 132 272 113 404 167 700
283 149 59 288 115 310 125 22 9 94 39 160 64 127 50 380 152 530 215 l90 37
32 65 c17 35 56 120 87 189 145 327 306 693 381 865 46 105 96 219 113 255 83
178 233 523 230 530 -2 5 -23 0 -48 -10 -43 -18 -733 -294 -1455 -582 -192
-77 -411 -164 -485 -195 -74 -30 -162 -65 -195 -78 -33 -12 -172 -68 -310
-124 -525 -214 -772 -314 -820 -331 -27 -10 -117 -46 -200 -80 -82 -34 -364
-147 -625 -251 -261 -105 -500 -201 -530 -214 -30 -13 -175 -71 -322 -129
-147 -58 -287 -114 -310 -124 -46 -20 -140 -58 -253 -102 -668 -260 -779 -323
-942 -540 -131 -173 -186 -410 -154 -655 23 -170 72 -287 296 -690 150 -270
244 -442 282 -515 78 -147 224 -413 238 -434 22 -30 19 -43 -12 -54 -66 -22
-523 -215 -537 -225 -9 -7 -39 -68 -67 -137 -28 -69 -80 -197 -116 -285 -36
-88 -94 -230 -128 -315 -35 -85 -80 -195 -100 -245 -144 -350 -180 -438 -205
-500 -15 -38 -62 -155 -105 -260 -42 -104 -110 -271 -150 -370 -40 -99 -110
-270 -155 -380 -45 -110 -111 -270 -145 -355 -35 -85 -86 -211 -115 -280 -28
-69 -60 -147 -70 -175 -44 -119 -127 -309 -136 -312 -10 -3 -68 122 -190 412
-47 110 -89 209 -94 220 -28 58 -147 377 -210 560 -162 477 -275 868 -381
1325 -11 47 -24 101 -29 120 -11 39 -113 587 -130 695 -6 39 -19 129 -31 200
-40 262 -70 538 -89 820 -5 83 -12 177 -15 210 -22 278 -29 685 -16 1010 11
263 34 672 45 785 3 25 10 101 16 170 6 69 17 170 25 225 8 55 21 156 30 225
28 209 75 461 101 542 27 82 58 132 121 193 62 60 127 91 353 168 56 19 381
137 475 172 39 15 138 51 220 80 83 29 265 94 405 145 140 51 316 114 390 140
206 74 426 154 630 230 207 77 558 204 755 275 72 25 153 55 180 65 28 11 138
51 245 89 107 39 314 113 460 166 146 53 326 118 400 145 351 126 673 244 752
276 49 19 90 34 93 34 8 0 902 324 1210 439 44 16 188 69 320 117 132 48 276
100 320 116 337 125 426 140 600 102z"/>
<path d="M12645 15954 c-16 -2 -86 -9 -155 -15 -309 -26 -554 -80 -875 -189
-245 -84 -325 -127 -339 -184 -3 -13 -29 -73 -57 -133 -28 -59 -95 -205 -149
-323 -54 -118 -112 -246 -129 -284 -18 -38 -30 -70 -28 -73 3 -2 58 34 123 80
212 149 393 249 668 367 27 11 51 18 54 16 3 -3 -8 -22 -24 -42 -123 -157
-361 -506 -428 -626 -38 -71 -54 -80 -91 -54 -11 7 -91 54 -177 104 -157 90
-158 91 -173 69 -8 -12 -15 -25 -15 -28 0 -4 -42 -100 -94 -212 -52 -113 -96
-213 -98 -222 -3 -18 38 -45 265 -181 53 -32 97 -64 97 -71 0 -8 -6 -29 -14
-48 -56 -132 -184 -600 -219 -795 -36 -201 -77 -515 -77 -592 0 -53 -1 -54
-52 -93 -62 -47 -219 -170 -333 -261 -44 -35 -138 -110 -210 -167 -211 -167
-737 -588 -915 -732 -91 -74 -235 -189 -320 -257 -229 -182 -301 -242 -356
-292 l-49 -45 95 41 c52 22 176 73 275 113 99 40 360 146 580 235 220 90 542
220 715 290 173 70 368 150 433 179 65 28 124 51 130 51 7 0 35 -44 62 -97 39
-77 67 -116 138 -190 49 -51 87 -98 84 -105 -2 -7 -42 -40 -88 -73 -46 -33
-115 -85 -154 -116 -65 -51 -415 -318 -732 -556 -75 -57 -175 -134 -222 -172
-47 -37 -123 -95 -167 -127 -45 -33 -121 -90 -170 -128 -49 -39 -125 -97 -169
-131 -44 -34 -125 -96 -180 -139 -55 -43 -145 -112 -199 -154 -121 -94 -170
-137 -141 -127 63 23 155 59 265 105 228 95 464 191 565 230 55 21 161 64 235
95 74 31 169 70 210 86 41 16 84 34 95 39 33 15 98 41 125 50 14 5 131 52 260
105 129 53 357 145 505 205 149 60 346 140 439 179 194 81 221 87 183 42 -24
-29 -75 -156 -87 -217 -12 -60 -9 -244 5 -295 8 -31 16 -23 -171 -169 -81 -63
-194 -151 -250 -195 -56 -44 -135 -106 -175 -137 -41 -31 -158 -121 -260 -200
-102 -79 -200 -154 -218 -168 -19 -14 -142 -110 -275 -213 -132 -104 -295
-230 -361 -282 -66 -51 -169 -132 -230 -180 -60 -48 -144 -113 -185 -145 -90
-69 -126 -100 -116 -100 4 0 39 14 79 31 40 17 113 46 162 66 50 19 292 115
538 214 246 98 453 179 459 179 5 0 8 -10 6 -22 -6 -25 -152 -596 -198 -773
-50 -190 -212 -828 -220 -865 -6 -29 -34 -138 -91 -352 -5 -21 -15 -38 -22
-38 -7 0 -32 37 -56 83 -24 45 -58 107 -76 137 -18 30 -53 94 -78 141 -25 47
-67 126 -95 175 -27 49 -72 132 -99 184 -69 130 -118 221 -168 310 -23 41 -74
134 -112 205 -39 72 -110 202 -158 290 -100 182 -295 546 -295 550 0 2 -33 61
-73 132 -41 70 -98 175 -127 233 -30 58 -68 130 -85 160 -35 61 -169 309 -235
435 -23 44 -69 130 -103 190 -33 61 -99 182 -147 270 -48 88 -131 238 -183
334 l-96 173 -14 -33 c-7 -19 -37 -97 -67 -174 -77 -201 -170 -441 -258 -664
l-77 -194 -205 -134 c-113 -74 -230 -152 -260 -173 -30 -21 -97 -65 -148 -97
-51 -32 -276 -179 -500 -328 -224 -148 -458 -303 -520 -343 -62 -41 -112 -76
-112 -78 0 -5 46 12 320 118 135 53 297 115 360 138 131 48 323 121 490 187
157 62 281 104 290 98 4 -3 41 -65 81 -137 39 -73 113 -207 163 -298 50 -91
91 -168 91 -172 0 -9 -349 -219 -457 -275 -15 -8 -30 -19 -34 -24 -3 -6 -16
-14 -27 -19 -12 -5 -43 -22 -68 -37 -25 -16 -113 -68 -195 -117 -82 -49 -205
-123 -274 -164 -69 -41 -210 -126 -315 -187 -104 -62 -233 -138 -285 -170 -52
-32 -108 -66 -125 -75 -16 -10 -52 -31 -80 -48 -121 -73 -504 -301 -542 -322
-24 -13 -43 -27 -43 -32 0 -12 -1 -12 107 33 54 23 186 77 293 120 107 44 214
88 237 99 24 11 46 20 49 20 3 0 106 41 228 91 374 155 446 184 606 249 85 34
175 71 200 82 25 11 99 42 165 68 99 39 283 114 370 150 11 5 65 27 120 50 55
23 114 47 130 55 78 35 128 55 141 55 7 0 30 -33 50 -72 20 -40 65 -124 100
-185 35 -62 64 -115 64 -118 0 -8 102 -180 119 -199 15 -17 15 -19 -4 -33 -28
-20 -389 -239 -500 -303 -16 -9 -86 -51 -155 -92 -221 -132 -474 -282 -495
-294 -65 -36 -552 -325 -605 -359 -19 -12 -64 -39 -100 -60 -36 -21 -82 -49
-102 -62 -21 -13 -40 -23 -43 -23 -3 0 -27 -15 -54 -33 -52 -34 -85 -54 -169
-100 -30 -15 -105 -60 -168 -98 -63 -38 -119 -69 -124 -69 -6 0 -10 -4 -10 -9
0 -6 82 24 183 65 257 107 494 204 547 224 129 51 428 173 477 196 17 8 33 14
36 14 5 0 292 117 342 140 25 11 289 118 530 215 99 40 229 94 289 119 146 63
337 139 340 134 1 -1 13 -21 26 -43 12 -22 32 -56 43 -75 23 -39 98 -175 150
-272 59 -110 110 -202 121 -220 5 -9 8 -19 6 -21 -18 -14 -193 -117 -201 -117
-5 0 -9 -4 -9 -8 0 -5 -11 -14 -24 -20 -14 -6 -92 -55 -173 -108 -81 -54 -164
-107 -183 -120 -19 -12 -125 -79 -235 -149 -110 -71 -254 -162 -320 -203 -66
-41 -149 -94 -185 -117 -68 -45 -176 -113 -247 -159 -60 -37 -54 -50 10 -22
28 13 122 49 207 80 85 32 164 61 175 66 39 16 241 93 320 121 44 16 89 33
100 38 11 5 34 14 50 20 17 5 95 35 175 66 80 31 213 81 295 111 83 31 214 80
292 110 78 30 144 54 146 54 3 0 26 -40 51 -89 25 -49 55 -107 67 -128 12 -21
38 -67 57 -103 19 -36 40 -69 46 -75 7 -5 18 -26 26 -45 8 -19 23 -51 34 -70
10 -19 34 -62 51 -95 79 -147 112 -208 175 -320 37 -66 79 -145 92 -175 30
-65 129 -200 184 -251 117 -108 225 -172 367 -217 210 -68 371 -66 583 8 133
46 212 97 350 226 107 100 187 264 248 510 24 98 47 195 51 214 4 19 13 55 21
80 24 78 42 147 120 465 41 171 82 333 90 360 7 28 30 118 50 200 19 83 62
251 95 375 32 124 97 383 144 575 89 364 146 594 171 680 7 28 27 106 43 175
58 242 262 1052 286 1133 18 64 34 77 94 77 44 0 183 41 246 72 82 42 235 192
268 265 10 24 13 24 141 22 268 -4 632 -62 999 -160 20 -5 37 -16 37 -24 0
-24 -197 -252 -340 -395 -247 -247 -523 -456 -870 -660 -98 -57 -149 -94 -157
-111 -7 -15 -30 -100 -52 -190 -22 -90 -80 -326 -130 -524 -50 -198 -96 -387
-102 -420 -7 -33 -16 -68 -21 -78 -5 -10 -7 -21 -5 -24 6 -5 189 86 447 222
91 48 239 126 330 173 91 46 291 151 445 232 154 81 399 209 545 285 257 133
330 174 435 240 28 17 102 62 165 100 132 78 163 100 355 244 218 163 358 287
517 458 214 229 289 323 444 558 294 445 479 893 580 1405 51 256 66 404 71
682 6 301 -2 431 -43 718 -80 556 -296 1125 -603 1584 -112 168 -108 163 -166
236 -186 234 -445 498 -652 662 -157 125 -352 256 -528 353 -136 75 -359 179
-440 205 -22 7 -44 16 -50 20 -15 12 -297 96 -416 124 -263 64 -520 95 -818
100 -125 3 -239 3 -256 0z m96 -850 c70 -688 101 -1091 86 -1101 -18 -11 -287
25 -487 66 -196 40 -570 154 -570 173 0 32 144 259 277 438 39 52 137 169 219
260 151 169 421 432 439 426 5 -1 21 -119 36 -262z m619 209 c201 -152 419
-373 580 -588 114 -152 136 -187 251 -394 63 -114 83 -159 75 -167 -16 -16
-359 -100 -510 -124 -115 -19 -292 -39 -352 -40 -24 0 -18 -50 -64 560 -20
263 -64 709 -76 778 -9 46 8 42 96 -25z m1188 -409 c113 -74 219 -154 372
-283 69 -57 127 -106 130 -108 14 -11 -29 -44 -126 -95 -60 -32 -112 -58 -116
-58 -4 0 -32 49 -63 108 -59 117 -176 305 -256 413 -74 100 -65 104 59 23z
m926 -906 c117 -157 303 -513 382 -731 87 -242 149 -499 184 -762 18 -140 24
-214 17 -222 -7 -10 -98 -13 -393 -13 l-384 0 0 23 c0 123 -44 539 -76 727
-49 282 -143 666 -200 814 -3 9 51 41 164 99 93 47 186 97 207 111 21 14 39
26 41 26 2 0 28 -33 58 -72z m-3809 -308 c307 -109 649 -184 975 -215 96 -9
184 -19 196 -21 19 -3 21 -12 27 -131 4 -71 7 -333 7 -584 0 -407 -2 -458 -16
-463 -9 -3 -202 -6 -430 -6 l-414 0 -32 36 c-85 94 -245 188 -373 218 -80 19
-257 24 -296 8 -15 -6 -30 -8 -33 -5 -19 19 11 306 50 483 8 36 19 90 24 120
14 82 113 422 150 518 37 96 23 93 165 42z m2835 -82 c7 -24 32 -110 56 -193
50 -165 116 -484 134 -640 6 -55 17 -143 25 -195 7 -52 15 -142 17 -200 l3
-105 -660 0 -660 0 -2 440 c-1 242 -3 506 -6 587 l-5 147 27 5 c14 3 62 8 106
11 274 21 567 77 840 160 110 33 112 33 125 -17z m-1654 -1961 c-3 -39 -11
-148 -17 -242 -5 -93 -17 -233 -25 -310 -22 -202 -44 -427 -44 -447 0 -10 -4
-18 -8 -18 -4 0 -41 33 -82 73 -88 86 -179 136 -300 168 -119 30 -261 23 -393
-22 l-92 -30 -31 35 c-31 36 -132 210 -141 244 -4 15 10 27 69 60 144 79 234
173 308 321 22 45 48 114 56 154 9 39 17 77 19 82 1 6 123 9 345 7 l342 -3 -6
-72z m1867 64 c21 -21 -72 -506 -143 -741 -71 -235 -88 -280 -211 -549 -89
-193 -71 -183 -234 -132 -144 46 -302 86 -445 114 -113 22 -170 32 -340 55
-46 6 -55 11 -55 27 1 20 24 233 30 270 10 63 62 681 71 840 3 66 10 122 14
125 14 9 1304 0 1313 -9z m1340 -16 c-63 -586 -263 -1125 -588 -1585 -97 -137
-228 -300 -241 -300 -7 0 -54 25 -105 56 -52 30 -147 81 -211 112 -65 31 -118
62 -118 69 0 6 17 44 38 85 153 299 297 725 358 1063 41 224 74 447 74 507 0
9 7 18 17 20 9 2 188 1 397 -2 374 -5 381 -5 379 -25z m-1392 -2211 c83 -42
149 -79 147 -84 -5 -13 -155 -129 -246 -189 -211 -140 -480 -292 -609 -344
-23 -9 -45 -13 -47 -8 -3 5 13 26 37 48 161 150 397 423 502 581 26 39 52 72
57 72 5 0 77 -34 159 -76z"/>
</g>

<text x="2100" y="1450" font-family="Arial, Helvetica, sans-serif" font-weight="bold" font-size="1000" fill="#0066CC">Ferro VPN</text>
</svg>
